name C:\Users\r0593348\3dpredictsim\Results\Batchsim_tmt_linear\Pog_s1_tmt_aCst_d00_k800_ig24_act.mot
datacolumns 128
datarows 4
range 1.92623011 1.96475471
endheader
time	pelvis_tilt	pelvis_list	pelvis_rotation	pelvis_tx	pelvis_ty	pelvis_tz	hip_flexion_l	hip_adduction_l	hip_rotation_l	hip_flexion_r	hip_adduction_r	hip_rotation_r	knee_angle_l	knee_angle_r	ankle_angle_l	ankle_angle_r	subtalar_angle_l	subtalar_angle_r	tmt_angle_l	tmt_angle_r	mtp_angle_l	mtp_angle_r	lumbar_extension	lumbar_bending	lumbar_rotation	arm_flex_l	arm_add_l	arm_rot_l	arm_flex_r	arm_add_r	arm_rot_r	elbow_flex_l	elbow_flex_r	pro_sup_l	pro_sup_r	glut_med1_l/activation	glut_med2_l/activation	glut_med3_l/activation	glut_min1_l/activation	glut_min2_l/activation	glut_min3_l/activation	semimem_l/activation	semiten_l/activation	bifemlh_l/activation	bifemsh_l/activation	sar_l/activation	add_long_l/activation	add_brev_l/activation	add_mag1_l/activation	add_mag2_l/activation	add_mag3_l/activation	tfl_l/activation	pect_l/activation	grac_l/activation	glut_max1_l/activation	glut_max2_l/activation	glut_max3_l/activation	iliacus_l/activation	psoas_l/activation	quad_fem_l/activation	gem_l/activation	peri_l/activation	rect_fem_l/activation	vas_med_l/activation	vas_int_l/activation	vas_lat_l/activation	med_gas_l/activation	lat_gas_l/activation	soleus_l/activation	tib_post_l/activation	flex_dig_l/activation	flex_hal_l/activation	tib_ant_l/activation	per_brev_l/activation	per_long_l/activation	per_tert_l/activation	ext_dig_l/activation	ext_hal_l/activation	ercspn_l/activation	intobl_l/activation	extobl_l/activation	glut_med1_r/activation	glut_med2_r/activation	glut_med3_r/activation	glut_min1_r/activation	glut_min2_r/activation	glut_min3_r/activation	semimem_r/activation	semiten_r/activation	bifemlh_r/activation	bifemsh_r/activation	sar_r/activation	add_long_r/activation	add_brev_r/activation	add_mag1_r/activation	add_mag2_r/activation	add_mag3_r/activation	tfl_r/activation	pect_r/activation	grac_r/activation	glut_max1_r/activation	glut_max2_r/activation	glut_max3_r/activation	iliacus_r/activation	psoas_r/activation	quad_fem_r/activation	gem_r/activation	peri_r/activation	rect_fem_r/activation	vas_med_r/activation	vas_int_r/activation	vas_lat_r/activation	med_gas_r/activation	lat_gas_r/activation	soleus_r/activation	tib_post_r/activation	flex_dig_r/activation	flex_hal_r/activation	tib_ant_r/activation	per_brev_r/activation	per_long_r/activation	per_tert_r/activation	ext_dig_r/activation	ext_hal_r/activation	ercspn_r/activation	intobl_r/activation	extobl_r/activation	
          1.92623011	         -2.92653669	          1.37717823	         -9.16638928	          2.40778764	          0.85402769	          0.00299544	         33.84243221	          0.25335362	         -1.15607337	        -17.05885841	         -2.83506080	          8.52732577	        -15.21352271	        -15.63906487	          9.70489719	         -9.77977045	         -1.42464155	         14.24081487	          0.02907676	          1.25171664	         -0.08036796	         30.66547721	         -0.61808904	          1.26444412	          3.73876480	        -11.16956473	        -13.67228437	         10.84755257	          3.79094172	        -13.53989340	         18.69254077	         16.90805183	         46.98283053	         86.51662706	         86.51662706	          0.12366649	          0.05000045	          0.05004729	          0.05000040	          0.05000050	          0.05000105	          0.19085873	          0.06226053	          0.14608755	          0.06070386	          0.05000208	          0.06075722	          0.08985730	          0.23488055	          0.16478760	          0.11981910	          0.06070179	          0.05011715	          0.07825323	          0.05000380	          0.08261992	          0.10873494	          0.06388663	          0.06401459	          0.25862792	          0.05004226	          0.05000115	          0.05000041	          0.05000357	          0.05002352	          0.05000478	          0.06070142	          0.06070155	          0.06070129	          0.05581167	          0.05000237	          0.06070716	          0.46242689	          0.32280030	          0.20969209	          0.09007916	          0.55494581	          0.25804336	          0.05000021	          0.14901506	          0.11856645	          0.13694868	          0.07369272	          0.08737428	          0.19758225	          0.12909886	          0.07394725	          0.05001110	          0.05000100	          0.05000094	          0.05000239	          0.07374926	          0.07916188	          0.05000097	          0.05000094	          0.05000180	          0.05000182	          0.16867659	          0.05000799	          0.05000248	          0.05002839	          0.05001254	          0.05000449	          0.40193615	          0.63140487	          0.05000421	          0.05001112	          0.07369556	          0.33203699	          0.07750366	          0.05847564	          0.05669515	          0.15413454	          0.22965818	          0.05799987	          0.16332003	          0.20009478	          0.21609206	          0.05000006	          0.38112957	          0.34683537	          0.05000028	          0.22140043	          0.05000035	          0.05000002	          0.05273040	          0.05000019	
          1.93907164	         -2.93017638	          1.33296233	         -9.39767378	          2.42878780	          0.85242320	          0.00264529	         33.16688966	          0.52942452	         -0.94466578	        -17.33725126	         -3.12890796	          8.21442977	        -15.32412246	        -16.79267933	          9.06505619	        -12.96997634	         -1.84113611	         14.71230967	          0.04879802	          1.13476899	         -0.07564816	         32.31121533	         -0.34523759	          1.09366144	          3.86504114	        -12.75718054	        -13.66351971	         10.70872917	          3.19887329	        -13.62372869	         18.91625342	         16.94245359	         48.41160760	         86.51662706	         86.51662706	          0.10186556	          0.05981754	          0.05000032	          0.06070757	          0.06070078	          0.05000838	          0.15721187	          0.05128456	          0.12033342	          0.05000319	          0.05004998	          0.05004679	          0.07401639	          0.19347791	          0.20484319	          0.14523116	          0.05000131	          0.05000518	          0.06445823	          0.06070077	          0.10971176	          0.13461065	          0.05262464	          0.05272954	          0.41008916	          0.06070384	          0.08629717	          0.06128092	          0.20243376	          0.20358120	          0.18286533	          0.05000012	          0.05000024	          0.05000001	          0.05000028	          0.07369060	          0.05000628	          0.65220960	          0.36682468	          0.24185641	          0.50976756	          0.64704837	          0.44235113	          0.05000003	          0.12274462	          0.09766389	          0.11280564	          0.06070156	          0.07197115	          0.16274993	          0.10633981	          0.06091130	          0.05000637	          0.05000055	          0.05000065	          0.05000424	          0.06074905	          0.17726836	          0.14528246	          0.09428424	          0.05002159	          0.05000213	          0.13894012	          0.09333607	          0.07325184	          0.05000588	          0.05000308	          0.05000245	          0.33107732	          0.52009216	          0.07150800	          0.07172341	          0.06070406	          0.27350089	          0.06384500	          0.12613710	          0.09866393	          0.12696154	          0.18917081	          0.05000002	          0.13452769	          0.16481934	          0.17799635	          0.23325652	          0.41181471	          0.33124726	          0.48817469	          0.41595557	          0.17316468	          0.05000044	          0.07161414	          0.06070159	
          1.95191318	         -2.92800894	          1.28818266	         -9.58823158	          2.44999703	          0.85045153	          0.00231160	         32.36258927	          0.80504976	         -0.66992979	        -17.40934290	         -3.37720845	          7.89433352	        -16.08650557	        -18.33795544	          8.24676857	        -15.85368538	         -2.27691709	         15.13090472	         -0.05003201	          0.91317732	         -0.14841360	         32.96398543	         -0.06892834	          0.90687678	          3.97034927	        -14.31881292	        -13.66078006	         10.65257947	          2.53564856	        -13.72055172	         19.06221394	         16.93172086	         49.82603816	         86.51662706	         86.51662706	          0.25979690	          0.26723915	          0.45861070	          0.05000565	          0.05000071	          0.34975989	          0.13462278	          0.05000092	          0.11694137	          0.05000034	          0.05000104	          0.07369345	          0.18736677	          0.25282877	          0.22758987	          0.17608948	          0.05000059	          0.06075056	          0.13190947	          0.05000034	          0.19711093	          0.18910296	          0.06070051	          0.05001144	          0.33779323	          0.05000287	          0.29029878	          0.05047752	          0.16674604	          0.16769123	          0.15062740	          0.06070119	          0.06070121	          0.06070126	          0.06070112	          0.06070029	          0.06070127	          0.54959206	          0.36888378	          0.19921897	          0.43870023	          0.66950930	          0.46013889	          0.05440978	          0.10110564	          0.08044634	          0.09291896	          0.05000176	          0.05928364	          0.13405834	          0.08759305	          0.05017338	          0.05886191	          0.06070081	          0.06070145	          0.05000041	          0.05003991	          0.18283685	          0.23903525	          0.11264910	          0.06078928	          0.06072047	          0.11444601	          0.07688509	          0.06070332	          0.05044859	          0.06069695	          0.06070338	          0.27271045	          0.44715971	          0.06070227	          0.06068925	          0.05000243	          0.22528432	          0.05259087	          0.10390011	          0.08127025	          0.10457898	          0.15582113	          0.06070070	          0.11081126	          0.13576276	          0.14661671	          0.35716422	          0.47903309	          0.33265993	          0.72424651	          0.52663688	          0.34432973	          0.07888776	          0.05898910	          0.05000036	
          1.96475471	         -2.92307806	          1.25085650	         -9.73260631	          2.47100880	          0.84825497	          0.00197206	         31.49717669	          1.08463562	         -0.36482010	        -17.21981379	         -3.58409304	          7.58263099	        -16.98372851	        -20.35480412	          7.58988306	        -18.04350827	         -2.72765204	         15.45364889	         -0.02791674	          0.65107505	         -0.15212286	         31.73112562	          0.17865380	          0.69769326	          4.05387448	        -15.75684875	        -13.66488558	         10.74301933	          1.87109312	        -13.81129992	         19.13018053	         16.80581172	         51.16668724	         86.51662706	         86.51662706	          0.33457046	          0.43002924	          0.53815938	          0.11773214	          0.23521451	          0.28810090	          0.11088961	          0.10478897	          0.09632540	          0.06956574	          0.05000114	          0.06070180	          0.15433517	          0.20825754	          0.24700470	          0.19471734	          0.05000042	          0.05004114	          0.10865520	          0.29391316	          0.26578299	          0.22994093	          0.05000011	          0.05000012	          0.27827328	          0.07195586	          0.23912151	          0.05000005	          0.13735076	          0.22604248	          0.18726617	          0.05000002	          0.05000006	          0.05000000	          0.05000001	          0.05000047	          0.05000033	          0.72962425	          0.42499587	          0.21038965	          0.69759212	          0.78297230	          0.55989966	          0.06861883	          0.08838731	          0.06626413	          0.12890416	          0.05000097	          0.05000024	          0.15216458	          0.07215261	          0.05000417	          0.09236168	          0.05000038	          0.05000070	          0.05000062	          0.06070190	          0.15060413	          0.19689499	          0.09279003	          0.05007302	          0.05001620	          0.09427042	          0.06333184	          0.05000232	          0.05000334	          0.05000218	          0.05000235	          0.22463342	          0.44221316	          0.05000093	          0.05000153	          0.05000123	          0.18556812	          0.05862491	          0.08946455	          0.08946466	          0.08614236	          0.12835081	          0.05000016	          0.09127592	          0.11182873	          0.12076913	          0.33314334	          0.39489873	          0.28860128	          0.65551060	          0.72906834	          0.28362652	          0.12555394	          0.05000002	          0.05000009	
